<svg width="81" height="57" viewBox="0 0 81 57" fill="none" xmlns="http://www.w3.org/2000/svg">
<rect x="0.5" y="0.5" width="80" height="56" rx="4.5" fill="black" stroke="#838383"/>
<path d="M19.7344 44.9531L11.1328 45C10.9766 45 10.8984 44.9219 10.8984 44.7656L10.9922 11.7891C10.9922 11.6641 11.0547 11.6016 11.1797 11.6016L20.1562 11.5547C21.9375 11.5078 23.5469 11.9141 24.9844 12.7734C26.4375 13.6328 27.5938 14.7969 28.4531 16.2656C29.3281 17.7188 29.7656 19.3281 29.7656 21.0938V34.875C29.7656 36.7188 29.3203 38.4062 28.4297 39.9375C27.5234 41.4531 26.3203 42.6641 24.8203 43.5703C23.3203 44.4609 21.625 44.9219 19.7344 44.9531ZM20.1562 17.2969L16.8047 17.3438L16.7578 39.0938H19.7344C20.9219 39.0938 21.9219 38.6797 22.7344 37.8516C23.5469 37.0234 23.9531 36.0312 23.9531 34.875V21.0469C23.9531 20.0312 23.5781 19.1484 22.8281 18.3984C22.0781 17.6328 21.1875 17.2656 20.1562 17.2969ZM49.2422 45H33.7266C33.6016 45 33.5391 44.9219 33.5391 44.7656L33.5859 11.7891C33.5859 11.6641 33.6484 11.6016 33.7734 11.6016H49.1953C49.3203 11.6016 49.3828 11.6797 49.3828 11.8359V17.2031C49.3828 17.3281 49.3203 17.3906 49.1953 17.3906H39.3516V24.8906H49.1953C49.3203 24.8906 49.3828 24.9531 49.3828 25.0781L49.4297 30.5156C49.4297 30.6406 49.3672 30.7031 49.2422 30.7031H39.3516V39.0938H49.2422C49.3672 39.0938 49.4297 39.1719 49.4297 39.3281V44.8125C49.4297 44.9375 49.3672 45 49.2422 45ZM70.3125 45H52.4062C52.25 45 52.1719 44.9219 52.1719 44.7656L52.2188 39.5391L63.9844 17.0625H52.8516C52.7109 17.0625 52.6406 17 52.6406 16.875V11.8359C52.6406 11.6797 52.7109 11.6016 52.8516 11.6016H70.2188C70.375 11.6016 70.4531 11.6797 70.4531 11.8359V17.0156L58.7578 39.375H70.3125C70.4375 39.375 70.5 39.4609 70.5 39.6328L70.5469 44.7656C70.5469 44.9219 70.4688 45 70.3125 45Z" fill="white"/>
</svg>
